/vscmnt/brussel_pixiu_data/_data_brussel/112/vsc11236/PredSimResults/SUBJ04_Falisse2022/weighted/worker_05.mot
version=1
nRows=4
nColumns=124
inDegrees=yes
endheader
                time	         pelvis_tilt	         pelvis_list	     pelvis_rotation	           pelvis_tx	           pelvis_ty	           pelvis_tz	       hip_flexion_r	     hip_adduction_r	      hip_rotation_r	        knee_angle_r	       ankle_angle_r	    subtalar_angle_r	         mtp_angle_r	       hip_flexion_l	     hip_adduction_l	      hip_rotation_l	        knee_angle_l	       ankle_angle_l	    subtalar_angle_l	         mtp_angle_l	    lumbar_extension	      lumbar_bending	     lumbar_rotation	          arm_flex_r	           arm_add_r	           arm_rot_r	        elbow_flex_r	          arm_flex_l	           arm_add_l	           arm_rot_l	        elbow_flex_l	glut_med1_r/activation	glut_med2_r/activation	glut_med3_r/activation	glut_min1_r/activation	glut_min2_r/activation	glut_min3_r/activation	semimem_r/activation	semiten_r/activation	bifemlh_r/activation	bifemsh_r/activation	    sar_r/activation	add_long_r/activation	add_brev_r/activation	add_mag1_r/activation	add_mag2_r/activation	add_mag3_r/activation	    tfl_r/activation	   pect_r/activation	   grac_r/activation	glut_max1_r/activation	glut_max2_r/activation	glut_max3_r/activation	iliacus_r/activation	  psoas_r/activation	quad_fem_r/activation	    gem_r/activation	   peri_r/activation	rect_fem_r/activation	vas_med_r/activation	vas_int_r/activation	vas_lat_r/activation	med_gas_r/activation	lat_gas_r/activation	 soleus_r/activation	tib_post_r/activation	flex_dig_r/activation	flex_hal_r/activation	tib_ant_r/activation	per_brev_r/activation	per_long_r/activation	per_tert_r/activation	ext_dig_r/activation	ext_hal_r/activation	glut_med1_l/activation	glut_med2_l/activation	glut_med3_l/activation	glut_min1_l/activation	glut_min2_l/activation	glut_min3_l/activation	semimem_l/activation	semiten_l/activation	bifemlh_l/activation	bifemsh_l/activation	    sar_l/activation	add_long_l/activation	add_brev_l/activation	add_mag1_l/activation	add_mag2_l/activation	add_mag3_l/activation	    tfl_l/activation	   pect_l/activation	   grac_l/activation	glut_max1_l/activation	glut_max2_l/activation	glut_max3_l/activation	iliacus_l/activation	  psoas_l/activation	quad_fem_l/activation	    gem_l/activation	   peri_l/activation	rect_fem_l/activation	vas_med_l/activation	vas_int_l/activation	vas_lat_l/activation	med_gas_l/activation	lat_gas_l/activation	 soleus_l/activation	tib_post_l/activation	flex_dig_l/activation	flex_hal_l/activation	tib_ant_l/activation	per_brev_l/activation	per_long_l/activation	per_tert_l/activation	ext_dig_l/activation	ext_hal_l/activation	 ercspn_r/activation	 ercspn_l/activation	 intobl_r/activation	 intobl_l/activation	 extobl_r/activation	 extobl_l/activation	
          0.70213760	         -6.75877637	          2.29800323	         -1.93018679	          0.60383834	          0.87721852	          0.00486339	        -10.91468014	          1.57982475	         11.85668833	         -4.03648957	          8.05073317	         -6.95381067	         25.51837819	         30.41000209	          4.81158888	          4.28975367	         -5.47451026	          7.55473999	         -7.47122764	          0.20494016	          0.12049631	         -0.47369665	          1.86225680	          0.72870555	        -13.46174245	         19.36796058	         39.82656983	          0.72966923	        -13.45008353	         19.33784844	         26.24197953	          0.31763582	          0.21180046	          0.16546109	          0.19190154	          0.23195466	          0.21881311	          0.01000045	          0.01000014	          0.01000007	          0.05633441	          0.11865471	          0.01233999	          0.01000030	          0.01000051	          0.01000089	          0.01000018	          0.27847255	          0.01233883	          0.01234461	          0.03817851	          0.02113819	          0.01000054	          0.32053746	          0.36480608	          0.04362002	          0.04130263	          0.18240997	          0.01809013	          0.01000015	          0.01000015	          0.01000015	          0.34218870	          0.41090587	          0.34777330	          0.29041722	          0.25385235	          0.23993443	          0.01690208	          0.01234076	          0.01325079	          0.01000021	          0.01141771	          0.01000032	          0.02716868	          0.01234039	          0.01000020	          0.01234074	          0.01234043	          0.01000030	          0.01234067	          0.04718433	          0.04846311	          0.01000003	          0.01242000	          0.06135420	          0.17920987	          0.17054565	          0.14909582	          0.07634862	          0.01000007	          0.02272821	          0.06238557	          0.01234049	          0.01523088	          0.08849060	          0.02194569	          0.02034736	          0.03080347	          0.01000099	          0.01234044	          0.02861886	          0.14171227	          0.14309126	          0.11557185	          0.00999999	          0.01000000	          0.00999999	          0.01119179	          0.01000007	          0.01000008	          0.34892114	          0.15641084	          0.11992579	          0.20120391	          0.39595655	          0.07539738	          0.01000002	          0.03864716	          0.01000001	          0.06218500	          0.01000000	          0.06115769	
          0.71618036	         -6.75979200	          2.50608177	         -2.14675153	          0.61909097	          0.87585641	          0.00463477	        -11.04299851	          1.42450331	         11.36666903	         -5.68667140	          8.17383512	         -6.43753501	         27.12039950	         29.47342440	          5.15147642	          4.69802471	         -5.18265806	          6.54225453	         -8.02706773	          0.20853891	          0.26211678	         -0.95555218	          1.94488365	          0.25730389	        -13.47582178	         19.33137886	         42.32316395	         -0.09700569	        -13.45077029	         19.27287375	         24.01938768	          0.25916066	          0.17163102	          0.13408020	          0.15698574	          0.19686027	          0.17731366	          0.01000096	          0.01000026	          0.01000032	          0.04565019	          0.09615118	          0.01000004	          0.01000006	          0.01000014	          0.01000044	          0.01000019	          0.22565841	          0.01000026	          0.01000354	          0.03369642	          0.02319604	          0.01000120	          0.26721740	          0.33150005	          0.03534720	          0.03346960	          0.14781459	          0.02275832	          0.01000015	          0.01000016	          0.01000015	          0.30040704	          0.36841958	          0.35032217	          0.28834939	          0.25690079	          0.24808629	          0.01369662	          0.01000026	          0.01073768	          0.01000011	          0.01000004	          0.01000091	          0.02201595	          0.01000003	          0.01000003	          0.01000026	          0.01000008	          0.01000006	          0.01000018	          0.03823551	          0.03927174	          0.01000006	          0.01006451	          0.04971802	          0.14522158	          0.13820063	          0.12081884	          0.06186857	          0.01000016	          0.02292413	          0.06125430	          0.01000007	          0.01234225	          0.07170772	          0.01778361	          0.01648843	          0.11718044	          0.01000159	          0.01000008	          0.02319110	          0.11483552	          0.11595297	          0.09365282	          0.01599577	          0.01800855	          0.01522873	          0.01000007	          0.01522903	          0.01522913	          0.28274570	          0.14881412	          0.11182688	          0.16304416	          0.40141904	          0.06109774	          0.01299548	          0.03131745	          0.01000004	          0.05039116	          0.01000003	          0.04955869	
          0.73022311	         -6.75673722	          2.71368852	         -2.35117038	          0.63463869	          0.87462271	          0.00439968	        -11.08942454	          1.27033286	         10.85121683	         -7.50802227	          8.18403428	         -5.92786559	         28.69963030	         28.42963036	          5.45112823	          5.12083896	         -4.99828948	          5.62093919	         -8.59257437	          0.19988971	          0.41656472	         -1.44749235	          2.01711220	         -0.31083074	        -13.48831358	         19.27102287	         44.90134335	         -1.02170999	        -13.45534483	         19.20805933	         21.95598686	          0.25393367	          0.13907994	          0.10865091	          0.19943391	          0.15952433	          0.14368484	          0.01000098	          0.01000021	          0.01000013	          0.03699230	          0.07791546	          0.01000012	          0.01000009	          0.01000019	          0.01000050	          0.01000017	          0.18286069	          0.01000063	          0.01000073	          0.02730575	          0.01879682	          0.01000029	          0.23986329	          0.29418360	          0.02864336	          0.02712191	          0.11978048	          0.02715544	          0.01000009	          0.01000009	          0.01000008	          0.24343274	          0.32041129	          0.34545173	          0.27611719	          0.24148371	          0.24061338	          0.01109899	          0.01000002	          0.01000000	          0.01000009	          0.01000004	          0.01000031	          0.11130493	          0.10228355	          0.11382840	          0.04033639	          0.02266003	          0.04338927	          0.03082022	          0.03715245	          0.03182360	          0.02319130	          0.01234073	          0.04028864	          0.11767925	          0.11198989	          0.09790470	          0.05013476	          0.01000078	          0.01857656	          0.04963703	          0.05131511	          0.01000167	          0.05810784	          0.01441084	          0.01336130	          0.09495636	          0.01020761	          0.09751894	          0.01879274	          0.09305614	          0.09396166	          0.07589089	          0.01296206	          0.01459311	          0.01234049	          0.01017018	          0.01234077	          0.01234085	          0.39203984	          0.22286139	          0.14090565	          0.24205478	          0.46026076	          0.14103348	          0.02342031	          0.03597373	          0.01000000	          0.06133937	          0.01000001	          0.04015952	
          0.74426586	         -6.75159301	          2.91481893	         -2.53971081	          0.65028957	          0.87363204	          0.00412532	        -11.02240955	          1.11743338	         10.32161451	         -9.52365986	          8.06080169	         -5.40879698	         30.20610918	         27.31801368	          5.73382831	          5.53121648	         -4.71816943	          4.73342540	         -9.16073405	          0.19011640	          0.56963095	         -1.93950401	          2.08161101	         -0.93293395	        -13.49886076	         19.20652244	         47.50464231	         -2.00435340	        -13.45692083	         19.17447236	         20.05185223	          0.24684432	          0.11270242	          0.08804447	          0.17305135	          0.12926940	          0.11643396	          0.01020254	          0.01000024	          0.01000014	          0.02997645	          0.06313825	          0.01000014	          0.01000031	          0.01000047	          0.01000097	          0.01000040	          0.14817986	          0.01000147	          0.01000068	          0.02212710	          0.01523194	          0.01000037	          0.19437154	          0.23838979	          0.02321094	          0.02197809	          0.09706323	          0.02214231	          0.01000019	          0.01000020	          0.01000017	          0.19726394	          0.25964299	          0.32787537	          0.26548739	          0.23184959	          0.23161085	          0.01000001	          0.01000033	          0.01385353	          0.01000013	          0.01000003	          0.01000014	          0.17834606	          0.18593729	          0.20497865	          0.04638642	          0.09538733	          0.11420273	          0.02497499	          0.03010702	          0.02578810	          0.01879292	          0.01000040	          0.03264762	          0.09536053	          0.09075024	          0.07933645	          0.04062644	          0.01000033	          0.01505354	          0.04022304	          0.11300947	          0.06540351	          0.04708733	          0.01167773	          0.01082725	          0.07694724	          0.01031025	          0.09988323	          0.01522857	          0.07540749	          0.07614127	          0.06149775	          0.01050371	          0.01182543	          0.01000003	          0.01000007	          0.01000036	          0.01000041	          0.45541751	          0.23621069	          0.13462889	          0.33841635	          0.49519837	          0.18686162	          0.03995704	          0.05170476	          0.01000000	          0.04970592	          0.01000000	          0.03254297	
